<?xml version="1.0" standalone="no"?>
<!DOCTYPE svg PUBLIC "-//W3C//DTD SVG 20010904//EN"
 "http://www.w3.org/TR/2001/REC-SVG-20010904/DTD/svg10.dtd">
<svg version="1.0" xmlns="http://www.w3.org/2000/svg"
 width="200.000000pt" height="200.000000pt" viewBox="0 0 200.000000 200.000000"
 preserveAspectRatio="xMidYMid meet">

<g transform="translate(0.000000,200.000000) scale(0.100000,-0.100000)"
fill="#000000" stroke="none">
<path d="M830 1791 c-241 -52 -443 -209 -553 -427 -48 -95 -77 -194 -84 -286
l-6 -78 -94 0 -93 0 137 -185 c76 -101 141 -183 145 -182 4 1 68 83 142 182
l135 180 -90 3 -89 3 0 45 c0 124 77 290 181 394 113 112 242 168 404 177 160
8 321 -43 428 -138 l44 -38 67 68 68 69 -63 51 c-185 147 -454 212 -679 162z"/>
<path d="M1578 1188 l-137 -183 90 -3 89 -3 0 -45 c0 -186 -148 -411 -330
-504 -128 -65 -292 -87 -425 -56 -89 21 -202 77 -261 129 l-45 40 -65 -64
c-35 -35 -64 -67 -64 -71 0 -17 130 -110 205 -147 129 -64 218 -85 365 -85
142 0 221 16 337 69 264 121 447 378 470 663 l6 72 94 0 93 0 -137 185 c-76
101 -140 184 -143 185 -3 0 -67 -82 -142 -182z"/>
</g>
</svg>
